<mxfile host="app.diagrams.net" modified="2023-03-25T19:19:28.804Z" agent="Mozilla/5.0 (Macintosh; Intel Mac OS X 10_15_7) AppleWebKit/537.36 (KHTML, like Gecko) Chrome/111.0.0.0 Safari/537.36" etag="IOwCtMIjZnTBNMUYgDGS" version="21.1.0" type="device">
  <diagram name="Sayfa -1" id="FK5ChYCmgkQT2VezHKAq">
    <mxGraphModel dx="2074" dy="1132" grid="1" gridSize="10" guides="1" tooltips="1" connect="1" arrows="1" fold="1" page="1" pageScale="1" pageWidth="827" pageHeight="1169" math="0" shadow="0">
      <root>
        <mxCell id="0" />
        <mxCell id="1" parent="0" />
        <mxCell id="V6yJ_1KZ-sUM2P74VFzj-2" style="edgeStyle=orthogonalEdgeStyle;rounded=0;orthogonalLoop=1;jettySize=auto;html=1;exitX=0.5;exitY=1;exitDx=0;exitDy=0;" edge="1" parent="1" source="V6yJ_1KZ-sUM2P74VFzj-1" target="V6yJ_1KZ-sUM2P74VFzj-3">
          <mxGeometry relative="1" as="geometry">
            <mxPoint x="400" y="260" as="targetPoint" />
          </mxGeometry>
        </mxCell>
        <mxCell id="V6yJ_1KZ-sUM2P74VFzj-1" value="Id" style="rounded=1;whiteSpace=wrap;html=1;" vertex="1" parent="1">
          <mxGeometry x="340" y="160" width="120" height="60" as="geometry" />
        </mxCell>
        <mxCell id="V6yJ_1KZ-sUM2P74VFzj-10" style="edgeStyle=orthogonalEdgeStyle;rounded=0;orthogonalLoop=1;jettySize=auto;html=1;exitX=0;exitY=0.5;exitDx=0;exitDy=0;entryX=0;entryY=0.5;entryDx=0;entryDy=0;" edge="1" parent="1" source="V6yJ_1KZ-sUM2P74VFzj-3" target="V6yJ_1KZ-sUM2P74VFzj-7">
          <mxGeometry relative="1" as="geometry">
            <mxPoint x="260" y="370" as="targetPoint" />
          </mxGeometry>
        </mxCell>
        <mxCell id="V6yJ_1KZ-sUM2P74VFzj-16" style="edgeStyle=orthogonalEdgeStyle;rounded=0;orthogonalLoop=1;jettySize=auto;html=1;exitX=0;exitY=0.5;exitDx=0;exitDy=0;entryX=0;entryY=0.5;entryDx=0;entryDy=0;" edge="1" parent="1" source="V6yJ_1KZ-sUM2P74VFzj-3" target="V6yJ_1KZ-sUM2P74VFzj-11">
          <mxGeometry relative="1" as="geometry">
            <Array as="points">
              <mxPoint x="130" y="295" />
              <mxPoint x="130" y="660" />
            </Array>
          </mxGeometry>
        </mxCell>
        <mxCell id="V6yJ_1KZ-sUM2P74VFzj-17" style="edgeStyle=orthogonalEdgeStyle;rounded=0;orthogonalLoop=1;jettySize=auto;html=1;exitX=1;exitY=0.5;exitDx=0;exitDy=0;entryX=0.5;entryY=0;entryDx=0;entryDy=0;entryPerimeter=0;" edge="1" parent="1" source="V6yJ_1KZ-sUM2P74VFzj-3" target="V6yJ_1KZ-sUM2P74VFzj-6">
          <mxGeometry relative="1" as="geometry" />
        </mxCell>
        <mxCell id="V6yJ_1KZ-sUM2P74VFzj-18" style="edgeStyle=orthogonalEdgeStyle;rounded=0;orthogonalLoop=1;jettySize=auto;html=1;exitX=1;exitY=0.25;exitDx=0;exitDy=0;" edge="1" parent="1" source="V6yJ_1KZ-sUM2P74VFzj-3" target="V6yJ_1KZ-sUM2P74VFzj-19">
          <mxGeometry relative="1" as="geometry">
            <mxPoint x="640" y="278" as="targetPoint" />
          </mxGeometry>
        </mxCell>
        <mxCell id="V6yJ_1KZ-sUM2P74VFzj-3" value="Doğum tarihi&lt;br&gt;Kaç haftalık&lt;br&gt;Risk Faktörleri" style="rounded=1;whiteSpace=wrap;html=1;" vertex="1" parent="1">
          <mxGeometry x="325" y="260" width="150" height="70" as="geometry" />
        </mxCell>
        <mxCell id="V6yJ_1KZ-sUM2P74VFzj-4" value="PRETERM" style="rounded=1;whiteSpace=wrap;html=1;" vertex="1" parent="1">
          <mxGeometry x="320" y="60" width="160" height="60" as="geometry" />
        </mxCell>
        <mxCell id="V6yJ_1KZ-sUM2P74VFzj-21" style="edgeStyle=orthogonalEdgeStyle;rounded=0;orthogonalLoop=1;jettySize=auto;html=1;exitX=0;exitY=0.5;exitDx=0;exitDy=0;exitPerimeter=0;" edge="1" parent="1" source="V6yJ_1KZ-sUM2P74VFzj-5" target="V6yJ_1KZ-sUM2P74VFzj-6">
          <mxGeometry relative="1" as="geometry" />
        </mxCell>
        <mxCell id="V6yJ_1KZ-sUM2P74VFzj-22" style="edgeStyle=orthogonalEdgeStyle;rounded=0;orthogonalLoop=1;jettySize=auto;html=1;exitX=0.5;exitY=1;exitDx=0;exitDy=0;exitPerimeter=0;" edge="1" parent="1" source="V6yJ_1KZ-sUM2P74VFzj-5">
          <mxGeometry relative="1" as="geometry">
            <mxPoint x="725" y="450" as="targetPoint" />
          </mxGeometry>
        </mxCell>
        <mxCell id="V6yJ_1KZ-sUM2P74VFzj-5" value="" style="outlineConnect=0;dashed=0;verticalLabelPosition=bottom;verticalAlign=top;align=center;html=1;shape=mxgraph.aws3.lambda_function;fillColor=#F58534;gradientColor=none;" vertex="1" parent="1">
          <mxGeometry x="690" y="334" width="69" height="72" as="geometry" />
        </mxCell>
        <mxCell id="V6yJ_1KZ-sUM2P74VFzj-6" value="" style="outlineConnect=0;dashed=0;verticalLabelPosition=bottom;verticalAlign=top;align=center;html=1;shape=mxgraph.aws3.rds;fillColor=#2E73B8;gradientColor=none;" vertex="1" parent="1">
          <mxGeometry x="580" y="330" width="72" height="81" as="geometry" />
        </mxCell>
        <mxCell id="V6yJ_1KZ-sUM2P74VFzj-7" value="" style="rounded=1;whiteSpace=wrap;html=1;" vertex="1" parent="1">
          <mxGeometry x="340" y="390" width="120" height="60" as="geometry" />
        </mxCell>
        <mxCell id="V6yJ_1KZ-sUM2P74VFzj-8" value="" style="endArrow=none;dashed=1;html=1;dashPattern=1 3;strokeWidth=2;rounded=0;" edge="1" parent="1">
          <mxGeometry width="50" height="50" relative="1" as="geometry">
            <mxPoint x="480" y="189.5" as="sourcePoint" />
            <mxPoint x="560" y="189.5" as="targetPoint" />
          </mxGeometry>
        </mxCell>
        <mxCell id="V6yJ_1KZ-sUM2P74VFzj-11" value="" style="whiteSpace=wrap;html=1;aspect=fixed;" vertex="1" parent="1">
          <mxGeometry x="220" y="490" width="440" height="440" as="geometry" />
        </mxCell>
        <mxCell id="V6yJ_1KZ-sUM2P74VFzj-12" value="1.1.23" style="rounded=1;whiteSpace=wrap;html=1;" vertex="1" parent="1">
          <mxGeometry x="250" y="510" width="120" height="60" as="geometry" />
        </mxCell>
        <mxCell id="V6yJ_1KZ-sUM2P74VFzj-13" value="12.1.23" style="rounded=1;whiteSpace=wrap;html=1;" vertex="1" parent="1">
          <mxGeometry x="250" y="585" width="120" height="60" as="geometry" />
        </mxCell>
        <mxCell id="V6yJ_1KZ-sUM2P74VFzj-14" value="8.1.23" style="rounded=1;whiteSpace=wrap;html=1;fontStyle=1" vertex="1" parent="1">
          <mxGeometry x="250" y="660" width="120" height="60" as="geometry" />
        </mxCell>
        <mxCell id="V6yJ_1KZ-sUM2P74VFzj-15" value="" style="rounded=1;whiteSpace=wrap;html=1;" vertex="1" parent="1">
          <mxGeometry x="250" y="840" width="120" height="60" as="geometry" />
        </mxCell>
        <mxCell id="V6yJ_1KZ-sUM2P74VFzj-20" style="edgeStyle=orthogonalEdgeStyle;rounded=0;orthogonalLoop=1;jettySize=auto;html=1;exitX=1;exitY=0.5;exitDx=0;exitDy=0;" edge="1" parent="1" source="V6yJ_1KZ-sUM2P74VFzj-19">
          <mxGeometry relative="1" as="geometry">
            <mxPoint x="720" y="330" as="targetPoint" />
          </mxGeometry>
        </mxCell>
        <mxCell id="V6yJ_1KZ-sUM2P74VFzj-19" value="Event-Bridge" style="text;html=1;strokeColor=none;fillColor=none;align=center;verticalAlign=middle;whiteSpace=wrap;rounded=0;" vertex="1" parent="1">
          <mxGeometry x="610" y="263" width="90" height="30" as="geometry" />
        </mxCell>
        <mxCell id="V6yJ_1KZ-sUM2P74VFzj-23" value="SNS" style="text;html=1;strokeColor=none;fillColor=none;align=center;verticalAlign=middle;whiteSpace=wrap;rounded=0;" vertex="1" parent="1">
          <mxGeometry x="694.5" y="450" width="60" height="30" as="geometry" />
        </mxCell>
      </root>
    </mxGraphModel>
  </diagram>
</mxfile>
